<svg width="95" height="95" viewBox="0 0 95 95" fill="none" xmlns="http://www.w3.org/2000/svg">
<path d="M46.1898 9.03291C47.0527 8.86271 47.9434 8.86271 48.8102 9.03291C49.8038 9.22291 50.7063 9.69396 51.5454 10.1294L51.7552 10.2402L84.4906 27.1819C84.9738 27.4322 85.3789 27.8105 85.6616 28.2754C85.9443 28.7403 86.0938 29.274 86.0938 29.8181V61.081C86.0938 62.2012 86.1017 63.3887 85.7256 64.4931C85.3947 65.4552 84.8616 66.3352 84.1621 67.074C83.3506 67.921 82.2898 68.4633 81.3002 68.974L81.0508 69.1046L48.8656 85.7612C48.4436 85.9799 47.9753 86.094 47.5 86.094C47.0247 86.094 46.5564 85.9799 46.1344 85.7612L13.9492 69.1046L13.6998 68.974C12.7102 68.4633 11.6494 67.921 10.8379 67.074C10.1385 66.3352 9.60534 65.4552 9.27439 64.4931C8.89835 63.3848 8.90231 62.1973 8.90626 61.0771V29.8181C8.90622 29.274 9.05573 28.7403 9.33845 28.2754C9.62117 27.8105 10.0262 27.4322 10.5094 27.1819L43.2408 10.2402L43.4506 10.1333C44.2938 9.69396 45.1923 9.22291 46.1898 9.03291ZM47.0844 14.9546C46.7082 15.1322 46.336 15.3183 45.9681 15.5127L18.4775 29.7429L47.5 43.9454L76.5225 29.7429L49.0279 15.5127C48.6601 15.3183 48.2879 15.1322 47.9117 14.9546L47.6821 14.8596M44.5313 78.2444V49.1031L14.8438 34.576V60.796C14.8438 61.5362 14.8438 61.9598 14.8636 62.2804L14.8992 62.5892C14.9504 62.7274 15.0269 62.855 15.1248 62.9652C15.1446 62.981 15.2079 63.0325 15.3781 63.1315C15.6473 63.2977 16.0233 63.4877 16.6765 63.8281L44.5313 78.2444Z" fill="#FDFDFD"/>
</svg>
