<svg width="95" height="95" viewBox="0 0 95 95" fill="none" xmlns="http://www.w3.org/2000/svg">
<path d="M11.875 11.875V79.1667C11.875 80.2165 12.292 81.2233 13.0344 81.9656C13.7767 82.708 14.7835 83.125 15.8333 83.125H83.125V75.2083H19.7917V11.875H11.875Z" fill="#FDFDFD"/>
<path d="M60.5348 58.2152C61.2771 58.9573 62.2837 59.3742 63.3333 59.3742C64.383 59.3742 65.3896 58.9573 66.1319 58.2152L85.9236 38.4235L80.3265 32.8265L63.3333 49.8196L54.2569 40.7431C53.5146 40.0011 52.508 39.5842 51.4583 39.5842C50.4087 39.5842 49.4021 40.0011 48.6598 40.7431L28.8681 60.5348L34.4652 66.1319L51.4583 49.1388L60.5348 58.2152Z" fill="#FDFDFD"/>
</svg>
