<svg width="76" height="76" viewBox="0 0 76 76" fill="none" xmlns="http://www.w3.org/2000/svg">
<path fill-rule="evenodd" clip-rule="evenodd" d="M41.1667 5.54167V2.375H34.8333V15.0733C30.9064 15.6109 27.1847 17.1532 24.0287 19.551L17.29 12.8092L15.048 10.5703L10.5703 15.048L12.8092 17.29L19.551 24.0287C17.1532 27.1847 15.6109 30.9064 15.0733 34.8333H2.375V41.1667H15.0733C15.6151 45.0925 17.157 48.8131 19.551 51.9713L12.8092 58.7132L10.5703 60.952L15.048 65.4297L17.29 63.1908L24.0287 56.449C27.1847 58.8468 30.9064 60.3891 34.8333 60.9267V73.625H41.1667V60.9267C45.0925 60.3849 48.8131 58.843 51.9713 56.449L58.7132 63.194L60.952 65.4297L65.4297 60.952L63.1908 58.7132L56.449 51.9713C58.843 48.8131 60.3849 45.0925 60.9267 41.1667H73.625V34.8333H60.9267C60.3891 30.9064 58.8468 27.1847 56.449 24.0287L63.194 17.29L65.4297 15.048L60.952 10.5703L58.7132 12.8092L51.9713 19.5542C48.8135 17.159 45.0928 15.616 41.1667 15.0733V5.54167ZM49.9288 26.1567L49.8433 26.0743C46.6965 22.9448 42.4381 21.1891 38 21.1913C35.378 21.1913 32.8953 21.793 30.685 22.8633C30.277 25.9079 30.5766 29.0056 31.5606 31.9155C32.5446 34.8255 34.1865 37.4693 36.3586 39.6414C38.5307 41.8135 41.1745 43.4554 44.0845 44.4394C46.9944 45.4234 50.0921 45.723 53.1367 45.315C54.2205 43.0726 54.7916 40.6172 54.8087 38.1267V37.8733C54.7785 33.4796 53.0264 29.2729 49.9288 26.1567Z" fill="#1A1A1A"/>
</svg>
