<svg width="88" height="88" viewBox="0 0 88 88" fill="none" xmlns="http://www.w3.org/2000/svg">
<path fill-rule="evenodd" clip-rule="evenodd" d="M47.6465 5.6485C48.1878 5.83518 48.6574 6.18619 48.9897 6.65255C49.322 7.11892 49.5004 7.67738 49.5 8.25V38.5H66C66.516 38.5001 67.0215 38.6453 67.4588 38.9191C67.8962 39.193 68.2476 39.5843 68.4731 40.0484C68.6985 40.5125 68.7889 41.0307 68.7338 41.5437C68.6787 42.0567 68.4804 42.5439 68.1615 42.9495L37.9115 81.4495C37.558 81.8989 37.0733 82.2269 36.5247 82.388C35.9762 82.5491 35.391 82.5352 34.8507 82.3482C34.3104 82.1612 33.8419 81.8105 33.5102 81.3449C33.1784 80.8792 33.0001 80.3217 33 79.75V49.5H16.5C15.984 49.4999 15.4785 49.3547 15.0412 49.0809C14.6038 48.8071 14.2524 48.4157 14.0269 47.9516C13.8015 47.4875 13.7111 46.9694 13.7662 46.4563C13.8213 45.9433 14.0196 45.4561 14.3385 45.0505L44.5885 6.5505C44.9414 6.1011 45.4254 5.77277 45.9734 5.61112C46.5215 5.44947 47.1062 5.46254 47.6465 5.6485Z" fill="#FDFDFD"/>
</svg>
