<svg width="79" height="79" viewBox="0 0 79 79" fill="none" xmlns="http://www.w3.org/2000/svg">
<path d="M60.4482 15.2602C65.8871 20.6984 68.9978 28.0388 69.1225 35.7291C69.2472 43.4194 66.3761 50.8568 61.1164 56.4685L60.4482 57.1598L46.4816 71.123C44.7095 72.8941 42.3304 73.9253 39.8264 74.0078C37.3223 74.0903 34.8806 73.2179 32.9957 71.5674L32.5217 71.123L18.5518 57.1565C12.996 51.6007 9.87482 44.0654 9.87482 36.2083C9.87482 28.3512 12.996 20.816 18.5518 15.2602C24.1076 9.70437 31.6429 6.58315 39.5 6.58315C47.3571 6.58315 54.8924 9.70437 60.4482 15.2602ZM39.5 26.3333C38.2032 26.3333 36.9191 26.5888 35.721 27.085C34.5229 27.5813 33.4343 28.3087 32.5173 29.2257C31.6003 30.1426 30.873 31.2312 30.3767 32.4293C29.8804 33.6274 29.625 34.9115 29.625 36.2083C29.625 37.5051 29.8804 38.7892 30.3767 39.9873C30.873 41.1854 31.6003 42.274 32.5173 43.191C33.4343 44.108 34.5229 44.8354 35.721 45.3316C36.9191 45.8279 38.2032 46.0833 39.5 46.0833C42.119 46.0833 44.6308 45.0429 46.4827 43.191C48.3346 41.3391 49.375 38.8273 49.375 36.2083C49.375 33.5893 48.3346 31.0776 46.4827 29.2257C44.6308 27.3737 42.119 26.3333 39.5 26.3333Z" fill="#FDFDFD"/>
</svg>
