<svg width="85" height="85" viewBox="0 0 85 85" fill="none" xmlns="http://www.w3.org/2000/svg">
<path d="M39.8438 47.8125C42.6617 47.8125 45.3642 48.9319 47.3568 50.9245C49.3493 52.9171 50.4688 55.6196 50.4688 58.4375C50.4688 63.5641 47.3237 67.6281 42.9728 70.2844C38.6219 72.93 32.8047 74.375 26.5625 74.375C20.3203 74.375 14.5031 72.93 10.1522 70.2844C5.79594 67.6281 2.65625 63.5641 2.65625 58.4375C2.65625 55.6196 3.77567 52.9171 5.76824 50.9245C7.76081 48.9319 10.4633 47.8125 13.2812 47.8125H39.8438ZM75.1878 47.855C77.1501 48.0562 78.968 48.978 80.2898 50.4422C81.6117 51.9063 82.3435 53.8087 82.3438 55.7812C82.3438 59.8772 79.8469 63.2666 76.4894 65.5031C73.1159 67.7556 68.6003 69.0625 63.75 69.0625C60.0313 69.0625 56.525 68.2869 53.5659 66.9216C54.9366 64.4619 55.7759 61.6303 55.7759 58.4375C55.7759 54.4053 54.2672 50.7344 51.7969 47.9241C52.229 47.8532 52.6717 47.816 53.125 47.8125H74.375L75.1878 47.855ZM26.5625 13.2812C30.4371 13.2813 34.1531 14.8204 36.8929 17.5602C39.6327 20.3 41.1719 24.016 41.1719 27.8906C41.1719 31.7653 39.6327 35.4812 36.8929 38.221C34.1531 40.9608 30.4371 42.5 26.5625 42.5C22.6879 42.5 18.9719 40.9608 16.2321 38.221C13.4923 35.4812 11.9531 31.7653 11.9531 27.8906C11.9531 24.016 13.4923 20.3 16.2321 17.5602C18.9719 14.8204 22.6879 13.2813 26.5625 13.2812ZM63.7606 18.5778C65.3526 18.5443 66.9352 18.8288 68.4158 19.4149C69.8963 20.0009 71.245 20.8766 72.3828 21.9906C73.5205 23.1046 74.4244 24.4345 75.0415 25.9024C75.6586 27.3703 75.9765 28.9466 75.9765 30.5389C75.9765 32.1312 75.6586 33.7075 75.0415 35.1754C74.4244 36.6433 73.5205 37.9732 72.3828 39.0872C71.245 40.2012 69.8963 41.0769 68.4158 41.6629C66.9352 42.249 65.3526 42.5336 63.7606 42.5C60.632 42.4341 57.6537 41.1449 55.4644 38.909C53.2751 36.673 52.049 33.6682 52.049 30.5389C52.049 27.4096 53.2751 24.4048 55.4644 22.1689C57.6537 19.9329 60.632 18.6438 63.7606 18.5778Z" fill="#FDFDFD"/>
</svg>
